<svg xmlns="http://www.w3.org/2000/svg" viewBox="0 0 48 48" aria-hidden="true" focusable="false">
  <path fill="#4285F4" d="M43.6 20.5H42V20H24v8h11.3c-1.1 3.1-3.3 5.7-6.3 7.4l6.4 4.9C39.4 36.9 43.6 29.3 43.6 20.5z"/>
  <path fill="#34A853" d="M24 44c8.1 0 14.9-2.7 19.8-7.3l-6.4-4.9c-3.6 2.4-8.3 3.8-13.4 3.8-10.3 0-19-6.9-22.1-16.3l-6.6 5.1C1.6 37.9 12 44 24 44z"/>
  <path fill="#FBBC05" d="M5.9 19.3C5.2 21.3 4.8 23.5 4.8 26c0 2.5.4 4.7 1.1 6.7l6.6-5.1c-.8-2.4-.8-5 0-7.4L5.9 19.3z"/>
  <path fill="#EA4335" d="M24 8c4.4 0 8.3 1.5 11.3 4.4l6.2-6.2C37.7 2.2 31.1 0 24 0 12 0 1.6 6.1-.7 14.9l6.6 5.1C5.9 15.4 13.7 8 24 8z"/>
  <path fill="none" d="M0 0h48v48H0z"/>
</svg>
