<svg xmlns="http://www.w3.org/2000/svg" viewBox="0 0 48 48" aria-hidden="true" focusable="false">
  <path fill="#EA4335" d="M24 9.5c3.54 0 6 1.54 7.38 2.83l5.38-5.38C33.46 4.1 28.9 2 24 2 14.64 2 6.68 7.84 3.24 15.42l6.42 4.98C11.54 14.32 17.26 9.5 24 9.5z"/>
  <path fill="#4285F4" d="M46.5 24.5c0-1.54-.14-3.02-.41-4.45H24v8.48h12.7c-.55 2.83-2.23 5.22-4.75 6.82l7.29 5.65C43.84 36.93 46.5 31.23 46.5 24.5z"/>
  <path fill="#FBBC05" d="M9.66 28.27c-.45-1.34-.71-2.76-.71-4.27s.26-2.93.71-4.27l-6.42-4.98C1.61 17.35 1 20.1 1 22.99s.61 5.64 2.24 8.24l6.42-4.96z"/>
  <path fill="#34A853" d="M24 47c6.9 0 12.68-2.28 16.9-6.21l-7.29-5.65c-2.02 1.36-4.61 2.17-7.61 2.17-5.91 0-10.92-3.97-12.7-9.35l-6.42 4.98C6.68 40.16 14.64 47 24 47z"/>
  <path fill="none" d="M1 1h46v46H1z"/>
</svg>
