<svg xmlns="http://www.w3.org/2000/svg" viewBox="0 0 48 48" aria-hidden="true" focusable="false">
  <path fill="#EA4335" d="M24 9.5c3.54 0 6 1.54 7.38 2.83l5.38-5.38C33.46 4.1 28.9 2 24 2 14.64 2 6.68 7.84 3.24 15.42l6.42 4.98C11.54 14.32 17.26 9.5 24 9.5z"/>
  <path fill="#4285F4" d="M46.5 24.5c0-1.54-.14-3.02-.41-4.45H24v8.48h12.7c-.55 2.83-2.23 5.22-4.75 6.82l7.29 5.65C43.84 36.93 46.5 31.23 46.5 24.5z"/>
  <path fill="#FBBC05" d="M9.66 28.27a13.5 13.5 0 0 1 0-8.54l-6.42-4.98A22.476 22.476 0 0 0 1 23c0 3.74.9 7.28 2.5 10.25l6.16-4.98z"/>
  <path fill="#34A853" d="M24 47c6.43 0 11.82-2.12 15.76-5.74l-7.52-5.97c-2.07 1.39-4.72 2.21-8.24 2.21-6.3 0-11.65-4.25-13.57-9.97l-7.62 5.87C6.77 41.86 14.68 47 24 47z"/>
  <path fill="none" d="M1 1h46v46H1z"/>
</svg>